<?xml version="1.0" encoding="UTF-8"?>
<svg id="Layer_1" data-name="Layer 1" xmlns="http://www.w3.org/2000/svg" viewBox="0 0 424.34 424.32">
  <defs>
    <style>
      .cls-1 {
        fill: white;
        stroke-width: 0px;
      }
    </style>
  </defs>
  <path class="cls-1" d="m0,212.03C.21,94.77,95.33-.19,212.38,0c117.07.19,212.12,95.41,211.96,212.21-.15,117.49-95.74,213.6-215,212.09C93.45,422.84.05,328.56,0,212.03Zm211.98,206.29c115.29-.33,206.44-93.26,206.25-206.33-.2-114.85-93.23-206.58-207.35-205.88C96.77,6.8,4.54,99.83,6.12,215.11c1.54,112.5,92.79,202.8,205.87,203.21Z"/>
  <path class="cls-1" d="m207.8,207.84c-40.66-40.65-81.13-81.11-121.82-121.8,1.52-1.29,2.96-2.53,4.45-3.8,40.31,40.33,80.85,80.89,121.4,121.46,40.89-40.9,81.45-81.47,122.13-122.16,1.5,1.65,2.77,3.03,3.94,4.32-40.38,40.36-80.94,80.91-121.46,121.41,42.37,42.35,84.34,84.3,126.22,126.16-1.75,1.78-3.05,3.12-4.33,4.43-41.82-41.83-83.78-83.79-125.93-125.94-42.44,42.46-84.46,84.5-126.34,126.4-1.57-1.4-2.98-2.67-4.63-4.14,42.17-42.16,84.16-84.14,126.36-126.33Z"/>
  <path class="cls-1" d="m213.92,274.99c.56-.45-4.37-3.97-3.99-4.28,9.97,9.96,24.26,23.04,33.76,32.53-.35,1.79.12,3.25.11,4.87-.07,14.15-.04,28.31-.04,42.47v2.9h-67.03v-8.29c0-12.66,0-25.31,0-37.97,0-1.19.65-1.19.65-3.23.15-.96.57-1.15,1.07-1.66,10.29-10.43,20.66-20.77,31.48-31.6m27.8,76.76c0-2.02,0-3.83,0-5.65,0-11.5-.16-23,.13-34.49.06-2.5-.76-3.88-2.33-5.41-4.71-4.6-9.34-9.28-13.98-13.94-3.33-3.35-7.92-6.93-11.2-10.27,7.11,2.38.54.6.37.77-8.96,8.94-17.94,17.87-26.83,26.89-.65.66-1,1.9-1.01,2.87-.07,12.42-.05,24.83-.04,37.25,0,.64.11,1.28.18,2h54.71Z"/>
  <path class="cls-1" d="m199.5,110.03v23.58h-7.32v-60.46c.25-.08.55-.25.85-.25,7.82.04,15.66-.21,23.46.24,7.12.41,12.96,3.67,15.43,10.74,2.58,7.39,2.16,14.67-3.52,20.73-1.66,1.77-3.99,2.9-6.21,4.45,4.34,7.93,8.79,16.06,13.52,24.7-2.87,0-5.47.1-8.04-.08-.56-.04-1.18-1.04-1.54-1.71-3.62-6.64-7.23-13.28-10.76-19.97-.73-1.39-1.52-2.08-3.22-2.02-4.07.15-8.15.05-12.64.05Zm.09-7.11c5.93,0,11.69.45,17.34-.13,5.82-.6,8.9-4.77,9.08-10.7.19-6.48-2.65-11.19-8.52-11.91-5.85-.72-11.86-.16-17.9-.16v22.9Z"/>
  <path class="cls-1" d="m322.01,235.82v21.98h-7.29v-60.58c.51-.07,1.06-.23,1.61-.22,7.73.11,15.52-.29,23.18.49,10.62,1.08,16.62,8.71,16.25,19.37-.42,12.15-7.61,18.69-20.9,18.95-4.15.08-8.3.01-12.84.01Zm.19-31.77v24.92c4.94,0,9.68.13,14.41-.03,7.75-.26,12.36-5.49,11.9-13.25-.38-6.45-3.64-10.99-9.29-11.52-5.58-.53-11.25-.12-17.01-.12Z"/>
  <path class="cls-1" d="m93.18,257.88h-7.44v-54.24h-19.07v-6.52h45.44v6.39h-18.94v54.37Z"/>
</svg>