<?xml version="1.0" encoding="UTF-8"?>
<svg id="Layer_1" data-name="Layer 1" xmlns="http://www.w3.org/2000/svg" viewBox="0 0 469.32 469.32">
  <defs>
    <style>
      .cls-1 {
        fill: #fff;
        stroke-width: 0px;
      }
    </style>
  </defs>
  <path class="cls-1" d="m0,358.04V111.31c.65-3.83,1.28-7.69,1.96-11.51C12.07,42.6,62.86,0,120.98,0c75.61,0,151.26,0,226.9.06,5.79,0,11.61.44,17.33,1.24,59,8.22,104.06,59.9,104.09,119.37.03,75.96,0,151.95,0,227.91,0,3.67-.22,7.37-.59,11.01-5.17,51.06-41.29,93.17-91.02,105.89-6.66,1.71-13.57,2.58-20.35,3.83H111.3c-2.27-.41-4.54-.9-6.81-1.21-49.32-6.97-89.77-43.85-101.16-92.39-1.37-5.85-2.21-11.79-3.3-17.71l-.03.03Zm429.38-123.04c0-37.44.06-74.87,0-112.3-.09-46.4-36.22-82.4-82.58-82.43H122.88c-46.36,0-82.55,36.16-82.58,82.43-.03,74.75-.03,149.49,0,224.23,0,46.15,36.1,82.34,82.24,82.4,74.74.09,149.49.06,224.23-.06,6.32,0,12.79-.62,18.92-1.99,37.59-8.5,63.54-41.2,63.63-80,.09-37.43,0-74.87,0-112.3l.06.03Z"/>
  <path class="cls-1" d="m351.81,235.03c-.06,64.38-52.65,116.85-117.06,116.79-64.54-.06-116.81-52.65-116.72-117.41.09-64.35,52.65-116.47,117.34-116.38,64.13.09,116.5,52.68,116.44,117Zm-197.97-.22c-.03,44.75,36.25,81.09,81,81.09s81.06-36.19,81.09-80.97c0-44.75-36.25-81.09-80.97-81.12-44.75,0-81.09,36.25-81.12,81Z"/>
  <path class="cls-1" d="m364.63,131.97c-14.97.09-27.17-11.98-27.23-26.92-.06-14.94,12.07-27.13,27.01-27.13s26.92,11.95,27.04,26.76c.16,14.97-11.92,27.2-26.85,27.29h.03Z"/>
</svg>