<svg xmlns="http://www.w3.org/2000/svg" xmlns:xlink="http://www.w3.org/1999/xlink" width="500" zoomAndPan="magnify" viewBox="0 0 375 374.999991" height="500" preserveAspectRatio="xMidYMid meet" version="1.0"><defs><g/><clipPath id="844b2756e2"><path d="M 37.5 37.5 L 337.5 37.5 L 337.5 337.5 L 37.5 337.5 Z M 37.5 37.5 " clip-rule="nonzero"/></clipPath><clipPath id="959ea564f8"><path d="M 187.5 37.5 C 104.65625 37.5 37.5 104.65625 37.5 187.5 C 37.5 270.34375 104.65625 337.5 187.5 337.5 C 270.34375 337.5 337.5 270.34375 337.5 187.5 C 337.5 104.65625 270.34375 37.5 187.5 37.5 Z M 187.5 37.5 " clip-rule="nonzero"/></clipPath><clipPath id="b9530c7f96"><path d="M 41.78125 41.78125 L 333.214844 41.78125 L 333.214844 333.214844 L 41.78125 333.214844 Z M 41.78125 41.78125 " clip-rule="nonzero"/></clipPath><clipPath id="23732e04fe"><path d="M 187.496094 41.78125 C 107.019531 41.78125 41.78125 107.019531 41.78125 187.496094 C 41.78125 267.972656 107.019531 333.214844 187.496094 333.214844 C 267.972656 333.214844 333.214844 267.972656 333.214844 187.496094 C 333.214844 107.019531 267.972656 41.78125 187.496094 41.78125 Z M 187.496094 41.78125 " clip-rule="nonzero"/></clipPath><clipPath id="99507db450"><path d="M 88.910156 88.910156 L 286.089844 88.910156 L 286.089844 286.089844 L 88.910156 286.089844 Z M 88.910156 88.910156 " clip-rule="nonzero"/></clipPath><clipPath id="32ca9ed86a"><path d="M 187.5 88.910156 C 133.050781 88.910156 88.910156 133.050781 88.910156 187.5 C 88.910156 241.949219 133.050781 286.089844 187.5 286.089844 C 241.949219 286.089844 286.089844 241.949219 286.089844 187.5 C 286.089844 133.050781 241.949219 88.910156 187.5 88.910156 Z M 187.5 88.910156 " clip-rule="nonzero"/></clipPath><clipPath id="eca4734592"><path d="M 60.660156 203.714844 L 77.160156 203.714844 L 77.160156 220.214844 L 60.660156 220.214844 Z M 60.660156 203.714844 " clip-rule="nonzero"/></clipPath><clipPath id="83049163bf"><path d="M 68.917969 203.714844 C 64.359375 203.714844 60.660156 207.410156 60.660156 211.96875 C 60.660156 216.527344 64.359375 220.226562 68.917969 220.226562 C 73.476562 220.226562 77.171875 216.527344 77.171875 211.96875 C 77.171875 207.410156 73.476562 203.714844 68.917969 203.714844 Z M 68.917969 203.714844 " clip-rule="nonzero"/></clipPath><clipPath id="59f2551b14"><path d="M 298.089844 203.714844 L 314.589844 203.714844 L 314.589844 220.214844 L 298.089844 220.214844 Z M 298.089844 203.714844 " clip-rule="nonzero"/></clipPath><clipPath id="d2d5d0340e"><path d="M 306.347656 203.714844 C 301.785156 203.714844 298.089844 207.410156 298.089844 211.96875 C 298.089844 216.527344 301.785156 220.226562 306.347656 220.226562 C 310.90625 220.226562 314.601562 216.527344 314.601562 211.96875 C 314.601562 207.410156 310.90625 203.714844 306.347656 203.714844 Z M 306.347656 203.714844 " clip-rule="nonzero"/></clipPath></defs><g clip-path="url(#844b2756e2)"><g clip-path="url(#959ea564f8)"><path stroke-linecap="butt" transform="matrix(0.75, 0, 0, 0.75, 37.500002, 37.499998)" fill="none" stroke-linejoin="miter" d="M 200.00001 0.00000328333 C 89.54167 0.00000328333 -0.00000271667 89.541676 -0.00000271667 200.000016 C -0.00000271667 310.458357 89.54167 400.00003 200.00001 400.00003 C 310.458351 400.00003 400.000024 310.458357 400.000024 200.000016 C 400.000024 89.541676 310.458351 0.00000328333 200.00001 0.00000328333 Z M 200.00001 0.00000328333 " stroke="#ffffff" stroke-width="6" stroke-opacity="1" stroke-miterlimit="4"/></g></g><g clip-path="url(#b9530c7f96)"><g clip-path="url(#23732e04fe)"><path stroke-linecap="butt" transform="matrix(0.75, 0, 0, 0.75, 41.780608, 41.780604)" fill="none" stroke-linejoin="miter" d="M 194.287327 0.000861792 C 86.985237 0.000861792 0.000855792 86.985243 0.000855792 194.287333 C 0.000855792 301.589423 86.985237 388.579012 194.287327 388.579012 C 301.589417 388.579012 388.579006 301.589423 388.579006 194.287333 C 388.579006 86.985243 301.589417 0.000861792 194.287327 0.000861792 Z M 194.287327 0.000861792 " stroke="#ffffff" stroke-width="6" stroke-opacity="1" stroke-miterlimit="4"/></g></g><g clip-path="url(#99507db450)"><g clip-path="url(#32ca9ed86a)"><path stroke-linecap="butt" transform="matrix(0.75, 0, 0, 0.75, 88.909547, 88.909542)" fill="none" stroke-linejoin="miter" d="M 131.453946 0.000818785 C 58.854983 0.000818785 0.000812785 58.854989 0.000812785 131.453952 C 0.000812785 204.052916 58.854983 262.907086 131.453946 262.907086 C 204.05291 262.907086 262.90708 204.052916 262.90708 131.453952 C 262.90708 58.854989 204.05291 0.000818785 131.453946 0.000818785 Z M 131.453946 0.000818785 " stroke="#ffffff" stroke-width="8" stroke-opacity="1" stroke-miterlimit="4"/></g></g><g clip-path="url(#eca4734592)"><g clip-path="url(#83049163bf)"><path stroke-linecap="butt" transform="matrix(0.75, 0, 0, 0.75, 60.661594, 203.713537)" fill="none" stroke-linejoin="miter" d="M 11.0085 0.0017423 C 4.930375 0.0017423 -0.00191716 4.928826 -0.00191716 11.006951 C -0.00191716 17.085077 4.930375 22.017369 11.0085 22.017369 C 17.086626 22.017369 22.013709 17.085077 22.013709 11.006951 C 22.013709 4.928826 17.086626 0.0017423 11.0085 0.0017423 Z M 11.0085 0.0017423 " stroke="#ffffff" stroke-width="4" stroke-opacity="1" stroke-miterlimit="4"/></g></g><path stroke-linecap="butt" transform="matrix(-0.75, 0, 0, -0.75, 77.12644, 212.723175)" fill="none" stroke-linejoin="miter" d="M 0.00192031 1.000692 L 21.960255 1.000692 " stroke="#ffffff" stroke-width="2" stroke-opacity="1" stroke-miterlimit="4"/><path stroke-linecap="butt" transform="matrix(0.551257, 0.551257, -0.551257, 0.551257, 135.328779, 133.127979)" fill="none" stroke-linejoin="miter" d="M 0.000247778 1.999708 L 193.276624 2.003251 " stroke="#ffffff" stroke-width="4" stroke-opacity="1" stroke-miterlimit="4"/><path stroke-linecap="butt" transform="matrix(0.551257, -0.551257, 0.551257, 0.551257, 133.123765, 239.666982)" fill="none" stroke-linejoin="miter" d="M 0.000225443 2.00029 L 193.276601 1.996747 " stroke="#ffffff" stroke-width="4" stroke-opacity="1" stroke-miterlimit="4"/><g clip-path="url(#59f2551b14)"><g clip-path="url(#d2d5d0340e)"><path stroke-linecap="butt" transform="matrix(0.75, 0, 0, 0.75, 298.090444, 203.713537)" fill="none" stroke-linejoin="miter" d="M 11.009617 0.0017423 C 4.926283 0.0017423 -0.000800501 4.928826 -0.000800501 11.006951 C -0.000800501 17.085077 4.926283 22.017369 11.009617 22.017369 C 17.087742 22.017369 22.014826 17.085077 22.014826 11.006951 C 22.014826 4.928826 17.087742 0.0017423 11.009617 0.0017423 Z M 11.009617 0.0017423 " stroke="#ffffff" stroke-width="4" stroke-opacity="1" stroke-miterlimit="4"/></g></g><path stroke-linecap="butt" transform="matrix(-0.75, 0, 0, -0.75, 314.555285, 212.723175)" fill="none" stroke-linejoin="miter" d="M 0.000797259 1.000692 L 21.959132 1.000692 " stroke="#ffffff" stroke-width="2" stroke-opacity="1" stroke-miterlimit="4"/><g fill="#ffffff" fill-opacity="1"><g transform="translate(97.245565, 126.352488)"><g><path d="M -8.675781 -22.832031 L 7.746094 -9.664062 L 4.707031 -5.871094 L -11.746094 -19.058594 L -16.335938 -13.339844 L -19.65625 -16 L -7.34375 -31.355469 L -3.996094 -28.671875 Z M -8.675781 -22.832031 "/></g></g></g><g fill="#ffffff" fill-opacity="1"><g transform="translate(108.279037, 111.957488)"><g><path d="M 1.703125 -1.457031 L -14.75 -20.730469 L -5.273438 -28.820312 C -2.941406 -30.8125 -0.960938 -31.777344 0.667969 -31.722656 C 2.300781 -31.664062 4.027344 -30.566406 5.851562 -28.429688 C 7.515625 -26.484375 8.421875 -24.960938 8.578125 -23.863281 C 8.734375 -22.761719 8.222656 -21.476562 7.046875 -20.007812 L 7.171875 -19.863281 C 8.269531 -20.800781 9.359375 -21.179688 10.441406 -21.007812 C 11.523438 -20.832031 12.589844 -20.125 13.644531 -18.894531 L 17.222656 -14.703125 L 13.496094 -11.519531 L 10.535156 -14.988281 C 9.5625 -16.125 8.695312 -16.722656 7.925781 -16.785156 C 7.160156 -16.84375 6.226562 -16.40625 5.128906 -15.46875 L -0.0742188 -11.027344 L 5.402344 -4.613281 Z M -2.761719 -14.179688 L 2.410156 -18.59375 C 3.660156 -19.664062 4.300781 -20.59375 4.328125 -21.378906 C 4.351562 -22.167969 3.78125 -23.246094 2.613281 -24.613281 C 1.496094 -25.925781 0.589844 -26.625 -0.101562 -26.714844 C -0.796875 -26.804688 -1.730469 -26.351562 -2.90625 -25.347656 L -8.339844 -20.707031 Z M -2.761719 -14.179688 "/></g></g></g><g fill="#ffffff" fill-opacity="1"><g transform="translate(125.115555, 97.273994)"><g><path d="M -1.703125 -28.199219 C 1.277344 -29.824219 3.507812 -30.75 4.984375 -30.976562 C 6.460938 -31.207031 7.753906 -30.945312 8.871094 -30.199219 C 9.984375 -29.449219 10.894531 -28.589844 11.597656 -27.617188 C 12.300781 -26.644531 13.289062 -24.992188 14.5625 -22.65625 C 16.054688 -19.921875 17.011719 -18.011719 17.429688 -16.925781 C 17.847656 -15.84375 18.054688 -14.652344 18.058594 -13.351562 C 18.058594 -12.054688 17.535156 -10.816406 16.488281 -9.640625 C 15.441406 -8.464844 13.664062 -7.191406 11.148438 -5.820312 C 6.8125 -3.457031 3.691406 -2.582031 1.78125 -3.199219 C -0.128906 -3.816406 -2.3125 -6.382812 -4.773438 -10.898438 C -6.386719 -13.855469 -7.425781 -15.945312 -7.890625 -17.164062 C -8.351562 -18.382812 -8.542969 -19.632812 -8.464844 -20.917969 C -8.386719 -22.203125 -7.828125 -23.414062 -6.792969 -24.554688 C -5.753906 -25.699219 -4.058594 -26.914062 -1.703125 -28.199219 Z M 10.699219 -19.425781 L 8.808594 -22.894531 C 7.644531 -25.027344 6.574219 -26.183594 5.597656 -26.359375 C 4.621094 -26.53125 2.824219 -25.90625 0.199219 -24.472656 C -2.359375 -23.078125 -3.65625 -21.875 -3.691406 -20.859375 C -3.730469 -19.84375 -2.589844 -17.210938 -0.273438 -12.964844 C 1.472656 -9.761719 2.796875 -8.007812 3.695312 -7.707031 C 4.597656 -7.402344 6.515625 -8.054688 9.449219 -9.652344 C 11.761719 -10.914062 12.984375 -12.058594 13.117188 -13.082031 C 13.253906 -14.109375 12.445312 -16.222656 10.699219 -19.425781 Z M 10.699219 -19.425781 "/></g></g></g><g fill="#ffffff" fill-opacity="1"><g transform="translate(144.798623, 86.378584)"><g><path d="M 14.804688 -31.042969 L 10.417969 -13.328125 L 13.257812 -4.0625 L 8.609375 -2.640625 L 5.769531 -11.902344 L -7.535156 -24.195312 L -2.234375 -25.820312 L 3.394531 -20.554688 L 5.050781 -18.914062 L 6.667969 -17.265625 L 7.023438 -18.445312 L 7.230469 -19.582031 L 7.683594 -21.867188 L 9.429688 -29.398438 Z M 14.804688 -31.042969 "/></g></g></g><g fill="#ffffff" fill-opacity="1"><g transform="translate(165.617668, 80.381538)"><g/></g></g><g fill="#ffffff" fill-opacity="1"><g transform="translate(173.469433, 78.532068)"><g><path d="M 2.242188 -0.046875 L 1.707031 -25.382812 L 11.964844 -25.601562 L 13.371094 -25.628906 C 16.636719 -25.699219 18.898438 -25.15625 20.148438 -24.003906 C 21.402344 -22.851562 22.0625 -20.695312 22.128906 -17.527344 C 22.207031 -13.882812 21.71875 -11.484375 20.664062 -10.335938 C 19.613281 -9.183594 17.289062 -8.570312 13.691406 -8.496094 L 12.59375 -8.433594 L 6.933594 -8.316406 L 7.101562 -0.148438 Z M 6.84375 -12.496094 L 12.3125 -12.609375 C 14.492188 -12.65625 15.859375 -12.929688 16.421875 -13.4375 C 16.980469 -13.941406 17.238281 -15.132812 17.199219 -17.007812 C 17.15625 -19.109375 16.886719 -20.40625 16.394531 -20.90625 C 15.902344 -21.402344 14.644531 -21.628906 12.621094 -21.585938 L 6.65625 -21.460938 Z M 6.84375 -12.496094 "/></g></g></g><g fill="#ffffff" fill-opacity="1"><g transform="translate(194.788974, 78.030012)"><g><path d="M 9.964844 -19.957031 L 8.890625 -13.472656 L 20.550781 -11.542969 L 19.964844 -8.019531 L 8.308594 -9.949219 L 7.140625 -2.902344 L 19.550781 -0.847656 L 18.894531 3.125 L 1.6875 0.277344 L 5.824219 -24.722656 L 22.917969 -21.894531 L 22.257812 -17.921875 Z M 9.964844 -19.957031 "/></g></g></g><g fill="#ffffff" fill-opacity="1"><g transform="translate(213.134453, 80.679113)"><g><path d="M 2.101562 0.777344 L 10.890625 -22.992188 L 22.578125 -18.671875 C 25.453125 -17.609375 27.265625 -16.351562 28.011719 -14.902344 C 28.757812 -13.453125 28.644531 -11.40625 27.667969 -8.769531 C 26.78125 -6.371094 25.894531 -4.835938 25.011719 -4.160156 C 24.128906 -3.488281 22.757812 -3.308594 20.902344 -3.617188 L 20.835938 -3.4375 C 22.191406 -2.9375 23.054688 -2.171875 23.429688 -1.140625 C 23.804688 -0.113281 23.710938 1.164062 23.152344 2.683594 L 21.242188 7.851562 L 16.644531 6.152344 L 18.222656 1.875 C 18.742188 0.472656 18.839844 -0.578125 18.519531 -1.277344 C 18.195312 -1.976562 17.359375 -2.578125 16.003906 -3.078125 L 9.589844 -5.449219 L 6.664062 2.464844 Z M 11.023438 -9.332031 L 17.402344 -6.976562 C 18.949219 -6.402344 20.070312 -6.300781 20.773438 -6.660156 C 21.472656 -7.023438 22.136719 -8.046875 22.757812 -9.734375 C 23.355469 -11.351562 23.523438 -12.484375 23.265625 -13.132812 C 23.003906 -13.78125 22.152344 -14.375 20.703125 -14.910156 L 14.003906 -17.386719 Z M 11.023438 -9.332031 "/></g></g></g><g fill="#ffffff" fill-opacity="1"><g transform="translate(234.167911, 88.211849)"><g><path d="M 19.503906 -17.675781 L 14.003906 -8.925781 L 15.933594 -7.710938 L 28.542969 -11.992188 L 33.625 -8.796875 L 18.347656 -3.769531 L 21.039062 13.222656 L 15.828125 9.949219 L 13.707031 -4.171875 L 11.777344 -5.386719 L 6.015625 3.78125 L 1.898438 1.191406 L 15.386719 -20.261719 Z M 19.503906 -17.675781 "/></g></g></g><g fill="#ffffff" fill-opacity="1"><g transform="translate(253.385999, 100.802947)"><g><path d="M 18.117188 -17.863281 L 21.824219 -14.710938 L 5.414062 4.601562 L 1.707031 1.453125 Z M 18.117188 -17.863281 "/></g></g></g><g fill="#ffffff" fill-opacity="1"><g transform="translate(259.832045, 105.144544)"><g><path d="M 36.007812 3.054688 L 16.769531 19.554688 L 11.453125 13.351562 L 17.285156 -1.210938 L 18.964844 -4.851562 L 19.828125 -6.644531 L 20.640625 -8.441406 L 20.539062 -8.558594 L 19.324219 -7.464844 C 18.554688 -6.804688 17.78125 -6.117188 16.996094 -5.394531 C 16.214844 -4.671875 15.757812 -4.253906 15.621094 -4.140625 L 4.578125 5.335938 L 1.460938 1.703125 L 20.695312 -14.796875 L 25.988281 -8.625 L 20.546875 4.753906 L 18.714844 8.976562 L 17.773438 11.035156 L 16.832031 13.144531 L 16.929688 13.261719 L 18.144531 12.167969 C 18.875 11.542969 19.628906 10.871094 20.402344 10.15625 C 21.175781 9.445312 21.636719 9.023438 21.792969 8.890625 L 32.867188 -0.609375 Z M 36.007812 3.054688 "/></g></g></g><g fill="#ffffff" fill-opacity="1"><g transform="translate(116.091494, 202.054556)"><g><path d="M 15.320312 -26.035156 L 15.320312 0 L 9.304688 0 L 9.304688 -26.082031 L 0.234375 -26.082031 L 0.234375 -31.34375 L 24.578125 -31.34375 L 24.578125 -26.035156 Z M 15.320312 -26.035156 "/></g></g></g><g fill="#ffffff" fill-opacity="1"><g transform="translate(173.094426, 147.67956)"><g><path d="M 2.773438 0 L 2.773438 -31.34375 L 17.199219 -31.34375 C 21.242188 -31.34375 24.023438 -30.617188 25.542969 -29.160156 C 27.0625 -27.703125 27.820312 -25.015625 27.820312 -21.101562 C 27.820312 -16.589844 27.15625 -13.636719 25.824219 -12.242188 C 24.492188 -10.847656 21.601562 -10.152344 17.152344 -10.152344 L 15.789062 -10.105469 L 8.789062 -10.105469 L 8.789062 0 Z M 8.789062 -15.273438 L 15.554688 -15.273438 C 18.25 -15.273438 19.949219 -15.578125 20.65625 -16.191406 C 21.359375 -16.800781 21.710938 -18.265625 21.710938 -20.582031 C 21.710938 -23.183594 21.414062 -24.796875 20.820312 -25.425781 C 20.222656 -26.050781 18.671875 -26.363281 16.167969 -26.363281 L 8.789062 -26.363281 Z M 8.789062 -15.273438 "/></g></g></g><g fill="#ffffff" fill-opacity="1"><g transform="translate(231.258284, 202.054556)"><g><path d="M 2.773438 0 L 2.773438 -31.34375 L 18.234375 -31.34375 C 21.867188 -31.34375 24.335938 -30.773438 25.636719 -29.628906 C 26.9375 -28.488281 27.585938 -26.316406 27.585938 -23.121094 C 27.585938 -20.960938 27.242188 -19.363281 26.550781 -18.328125 C 25.863281 -17.292969 24.671875 -16.589844 22.980469 -16.214844 C 24.984375 -15.804688 26.378906 -15.0625 27.164062 -13.980469 C 27.945312 -12.898438 28.339844 -11.121094 28.339844 -8.648438 C 28.339844 -5.421875 27.65625 -3.171875 26.292969 -1.902344 C 24.929688 -0.632812 22.527344 0 19.078125 0 Z M 8.789062 -18.1875 L 16.074219 -18.1875 C 18.484375 -18.1875 20.011719 -18.4375 20.65625 -18.9375 C 21.296875 -19.441406 21.617188 -20.644531 21.617188 -22.558594 C 21.617188 -24.125 21.34375 -25.148438 20.796875 -25.636719 C 20.246094 -26.121094 19.078125 -26.363281 17.292969 -26.363281 L 8.789062 -26.363281 Z M 8.789062 -4.980469 L 15.320312 -4.980469 C 18.453125 -4.980469 20.410156 -5.214844 21.195312 -5.6875 C 21.976562 -6.15625 22.371094 -7.347656 22.371094 -9.257812 C 22.371094 -11.230469 22.039062 -12.46875 21.382812 -12.96875 C 20.726562 -13.472656 19.0625 -13.722656 16.402344 -13.722656 L 8.789062 -13.722656 Z M 8.789062 -4.980469 "/></g></g></g><g fill="#ffffff" fill-opacity="1"><g transform="translate(120.276524, 303.184459)"><g><path d="M 2.007812 0.910156 L 11.628906 -20.359375 L 21.035156 -16.105469 C 23.628906 -14.929688 25.164062 -13.800781 25.644531 -12.710938 C 26.125 -11.625 25.84375 -9.921875 24.792969 -7.605469 C 24.1875 -6.265625 23.546875 -5.359375 22.871094 -4.882812 C 22.195312 -4.40625 21.257812 -4.226562 20.050781 -4.335938 C 21.171875 -3.417969 21.8125 -2.480469 21.96875 -1.527344 C 22.125 -0.574219 21.839844 0.710938 21.109375 2.328125 C 20.128906 4.496094 18.972656 5.828125 17.648438 6.332031 C 16.320312 6.832031 14.570312 6.589844 12.402344 5.609375 Z M 9.78125 -9.902344 L 16.09375 -7.046875 C 18.046875 -6.164062 19.417969 -5.832031 20.195312 -6.054688 C 20.976562 -6.277344 21.734375 -7.210938 22.476562 -8.847656 C 23.128906 -10.292969 23.3125 -11.328125 23.019531 -11.960938 C 22.730469 -12.589844 21.734375 -13.292969 20.03125 -14.058594 L 13.082031 -17.203125 Z M 5.335938 -0.0820312 L 10.4375 2.226562 L 12.589844 3.160156 C 14.417969 3.988281 15.703125 4.300781 16.449219 4.097656 C 17.191406 3.898438 17.910156 3.03125 18.601562 1.5 C 19.449219 -0.371094 19.6875 -1.644531 19.316406 -2.324219 C 18.945312 -3.003906 17.515625 -3.90625 15.027344 -5.03125 L 8.84375 -7.832031 Z M 5.335938 -0.0820312 "/></g></g></g><g fill="#ffffff" fill-opacity="1"><g transform="translate(141.696004, 312.75922)"><g><path d="M 23.332031 -18.105469 L 25.871094 -17.453125 L 21.808594 -1.625 C 21.082031 1.199219 20.035156 2.929688 18.667969 3.566406 C 17.300781 4.203125 14.875 4.074219 11.394531 3.179688 C 7.710938 2.234375 5.351562 1.175781 4.316406 0.0078125 C 3.28125 -1.164062 3.078125 -2.980469 3.710938 -5.441406 L 3.910156 -6.222656 L 7.976562 -22.050781 L 10.519531 -21.398438 L 6.453125 -5.570312 C 5.914062 -3.46875 5.917969 -2.050781 6.464844 -1.320312 C 7.011719 -0.589844 8.582031 0.109375 11.183594 0.777344 C 14.253906 1.566406 16.230469 1.796875 17.109375 1.46875 C 17.988281 1.140625 18.707031 -0.109375 19.265625 -2.277344 Z M 23.332031 -18.105469 "/></g></g></g><g fill="#ffffff" fill-opacity="1"><g transform="translate(165.204815, 318.246172)"><g><path d="M 5.316406 -22.835938 L 7.914062 -22.484375 L 4.785156 0.648438 L 2.183594 0.296875 Z M 5.316406 -22.835938 "/></g></g></g><g fill="#ffffff" fill-opacity="1"><g transform="translate(173.212897, 319.516458)"><g><path d="M 5.777344 -23.125 L 4.925781 -2.25 L 16.917969 -1.761719 L 16.820312 0.6875 L 2.203125 0.0898438 L 3.152344 -23.234375 Z M 5.777344 -23.125 "/></g></g></g><g fill="#ffffff" fill-opacity="1"><g transform="translate(191.843849, 320.374304)"><g><path d="M 2.191406 -0.25 L -0.472656 -23.441406 L 10.234375 -24.671875 C 13.550781 -25.050781 15.882812 -24.566406 17.234375 -23.21875 C 18.589844 -21.871094 19.507812 -19.078125 19.996094 -14.835938 C 20.554688 -9.96875 20.398438 -6.628906 19.527344 -4.8125 C 18.652344 -3 16.664062 -1.914062 13.558594 -1.558594 Z M 4.539062 -2.8125 L 12.082031 -3.675781 C 14.792969 -3.988281 16.488281 -4.742188 17.160156 -5.933594 C 17.832031 -7.125 17.957031 -9.589844 17.527344 -13.320312 C 17.035156 -17.609375 16.386719 -20.269531 15.589844 -21.304688 C 14.789062 -22.339844 13.089844 -22.707031 10.496094 -22.410156 L 2.394531 -21.480469 Z M 4.539062 -2.8125 "/></g></g></g><g fill="#ffffff" fill-opacity="1"><g transform="translate(216.159326, 317.237188)"><g><path d="M -1.867188 -21.347656 L 0.25 -13.726562 L 11.648438 -16.894531 L 12.238281 -14.773438 L 0.84375 -11.601562 L 3.167969 -3.242188 L 15.070312 -6.550781 L 15.679688 -4.359375 L 1.246094 -0.347656 L -5.003906 -22.835938 L 9.425781 -26.847656 L 10.035156 -24.65625 Z M -1.867188 -21.347656 "/></g></g></g><g fill="#ffffff" fill-opacity="1"><g transform="translate(234.548047, 312.167375)"><g><path d="M 2.007812 -0.90625 L -7.59375 -22.183594 L 2.519531 -26.746094 C 4.792969 -27.773438 6.605469 -28.039062 7.953125 -27.546875 C 9.300781 -27.054688 10.480469 -25.695312 11.488281 -23.460938 C 12.390625 -21.460938 12.765625 -19.964844 12.609375 -18.976562 C 12.457031 -17.984375 11.707031 -17.046875 10.367188 -16.160156 C 12.71875 -16.964844 14.46875 -16.089844 15.621094 -13.539062 L 18.054688 -8.148438 L 15.660156 -7.070312 L 13.472656 -11.917969 C 12.359375 -14.382812 10.730469 -15.132812 8.582031 -14.164062 L 7.785156 -13.804688 L 0.542969 -10.535156 L 4.402344 -1.988281 Z M -0.390625 -12.609375 L 6.53125 -15.730469 C 8.335938 -16.546875 9.433594 -17.375 9.824219 -18.21875 C 10.210938 -19.058594 10.054688 -20.253906 9.355469 -21.808594 C 8.5 -23.699219 7.703125 -24.828125 6.960938 -25.199219 C 6.21875 -25.566406 5.058594 -25.398438 3.484375 -24.6875 L -4.265625 -21.1875 Z M -0.390625 -12.609375 "/></g></g></g><path stroke-linecap="butt" transform="matrix(0.75, 0.000000000000002096, -0.000000000000002096, 0.75, 172.242944, 255.749837)" fill="none" stroke-linejoin="miter" d="M -0.00100812 1.500218 L 40.686495 1.500218 " stroke="#ffffff" stroke-width="3" stroke-opacity="1" stroke-miterlimit="4"/><path stroke-linecap="butt" transform="matrix(0, 0.75, -0.75, 0, 202.756794, 236.823222)" fill="none" stroke-linejoin="miter" d="M 0.00132894 1.498642 L 27.079456 1.498642 " stroke="#ffffff" stroke-width="3" stroke-opacity="1" stroke-miterlimit="4"/><path stroke-linecap="butt" transform="matrix(0, 0.75, -0.75, 0, 174.492723, 236.823222)" fill="none" stroke-linejoin="miter" d="M 0.00132894 1.500714 L 27.079456 1.500714 " stroke="#ffffff" stroke-width="3" stroke-opacity="1" stroke-miterlimit="4"/><path stroke-linecap="butt" transform="matrix(0.598282, 0.452281, -0.452281, 0.598282, 187.577395, 225.421627)" fill="none" stroke-linejoin="miter" d="M 0.000446006 1.501773 L 25.370412 1.498921 " stroke="#ffffff" stroke-width="3" stroke-opacity="1" stroke-miterlimit="4"/><path stroke-linecap="butt" transform="matrix(0.598188, -0.452406, 0.452406, 0.598188, 172.331537, 236.74034)" fill="none" stroke-linejoin="miter" d="M 0.00239911 1.500304 L 25.371352 1.501145 " stroke="#ffffff" stroke-width="3" stroke-opacity="1" stroke-miterlimit="4"/></svg>